<svg width="29" height="29" viewBox="0 0 29 29" fill="none" xmlns="http://www.w3.org/2000/svg">
<path d="M25.3271 20.0082C26.1308 19.7068 26.7838 19.2045 27.2862 18.5012C27.7885 17.798 28.0397 17.0277 28.0397 16.1905V12.6742C28.0397 11.837 27.7885 11.0667 27.2862 10.3635C26.7838 9.66019 26.1308 9.15785 25.3271 8.85646L3.22444 0.668432C2.58815 0.434009 1.98535 0.517731 1.41604 0.919598C0.846733 1.28797 0.562077 1.8238 0.562077 2.52706V3.78289C0.562077 4.62012 0.813244 5.39036 1.31558 6.09362C1.81791 6.79689 2.47094 7.28248 3.27468 7.55039L23.2173 14.3821C23.2508 14.3821 23.2675 14.3989 23.2675 14.4323C23.2675 14.4658 23.2508 14.4826 23.2173 14.4826L3.27468 21.3143C2.47094 21.5822 1.81791 22.0678 1.31558 22.7711C0.813244 23.4743 0.562077 24.2446 0.562077 25.0818V26.3376C0.562077 27.0409 0.846733 27.5935 1.41604 27.9953C1.98535 28.3637 2.58815 28.4307 3.22444 28.1963L25.3271 20.0082Z" fill="white"/>
</svg>
