<svg width="24" height="16" viewBox="0 0 24 16" fill="none" xmlns="http://www.w3.org/2000/svg">
<path d="M0 14.2083C0 14.9217 0.578299 15.5 1.29167 15.5H21.9583C22.6717 15.5 23.25 14.9217 23.25 14.2083C23.25 13.495 22.6717 12.9167 21.9583 12.9167H1.29167C0.578298 12.9167 0 13.495 0 14.2083ZM0 7.75C0 8.46337 0.578299 9.04167 1.29167 9.04167H21.9583C22.6717 9.04167 23.25 8.46337 23.25 7.75C23.25 7.03663 22.6717 6.45833 21.9583 6.45833H1.29167C0.578298 6.45833 0 7.03663 0 7.75ZM1.29167 0C0.578298 0 0 0.578299 0 1.29167C0 2.00503 0.578299 2.58333 1.29167 2.58333H21.9583C22.6717 2.58333 23.25 2.00503 23.25 1.29167C23.25 0.578299 22.6717 0 21.9583 0H1.29167Z" fill="white"/>
</svg>
