<svg width="68" height="25" viewBox="0 0 68 25" fill="none" xmlns="http://www.w3.org/2000/svg">
<g filter="url(#filter0_d_1544_381)">
<path d="M4.53669 22C4.15012 22 3.81397 21.8571 3.52824 21.5714C3.24252 21.2857 3.09965 20.9495 3.09965 20.563V5.03288C3.09965 4.6463 3.24252 4.31015 3.52824 4.02443C3.81397 3.7387 4.15012 3.59584 4.53669 3.59584H5.77204C6.73006 3.59584 7.42757 4.01602 7.86457 4.8564L13.1589 14.8652C13.1589 14.882 13.1673 14.8904 13.1841 14.8904C13.2009 14.8904 13.2093 14.882 13.2093 14.8652V5.03288C13.2093 4.6463 13.3522 4.31015 13.6379 4.02443C13.9237 3.7387 14.2598 3.59584 14.6464 3.59584H15.8817C16.2683 3.59584 16.6044 3.7387 16.8902 4.02443C17.1759 4.31015 17.3188 4.6463 17.3188 5.03288V20.563C17.3188 20.9495 17.1759 21.2857 16.8902 21.5714C16.6044 21.8571 16.2683 22 15.8817 22H14.6464C13.6884 22 12.9908 21.5798 12.5538 20.7394L7.2595 10.7306C7.2595 10.7138 7.2511 10.7054 7.23429 10.7054C7.21748 10.7054 7.20908 10.7138 7.20908 10.7306V20.563C7.20908 20.9495 7.06621 21.2857 6.78049 21.5714C6.49476 21.8571 6.15861 22 5.77204 22H4.53669ZM26.5163 11.3861C25.76 11.3861 25.1885 11.5878 24.8019 11.9912C24.4154 12.3777 24.1717 13.05 24.0708 14.0081C24.0708 14.1425 24.1297 14.2097 24.2473 14.2097H28.508C28.6593 14.2097 28.7349 14.1341 28.7349 13.9828C28.6677 12.2517 27.9281 11.3861 26.5163 11.3861ZM27.1466 22.2521C24.8608 22.2521 23.096 21.6723 21.8522 20.5125C20.6253 19.3528 20.0118 17.6637 20.0118 15.4451C20.0118 13.2433 20.5581 11.5626 21.6506 10.4029C22.7598 9.22634 24.3566 8.63807 26.4407 8.63807C30.4409 8.63807 32.4746 10.823 32.5418 15.193C32.5418 15.5964 32.3821 15.9409 32.0628 16.2266C31.7602 16.4956 31.4073 16.63 31.0039 16.63H24.2725C24.1044 16.63 24.0372 16.7057 24.0708 16.8569C24.2053 17.7813 24.5582 18.4452 25.1297 18.8486C25.718 19.2352 26.5919 19.4285 27.7517 19.4285C28.508 19.4285 29.3232 19.3192 30.1971 19.1007C30.5501 19.0167 30.861 19.0839 31.13 19.3024C31.4157 19.5209 31.5585 19.8066 31.5585 20.1596V20.21C31.5585 20.6302 31.4241 21.0168 31.1552 21.3697C30.9031 21.7059 30.5753 21.9076 30.1719 21.9748C29.1971 22.1597 28.1887 22.2521 27.1466 22.2521ZM36.5929 20.6134L34.2483 10.2768C34.181 9.92384 34.2567 9.6045 34.4752 9.31878C34.6937 9.03305 34.9878 8.89019 35.3576 8.89019H36.6181C37.0383 8.89019 37.3997 9.02465 37.7022 9.29357C38.0047 9.56248 38.1896 9.89863 38.2568 10.302L39.5174 18.6973C39.5174 18.7141 39.5258 18.7225 39.5426 18.7225C39.5594 18.7225 39.5678 18.7141 39.5678 18.6973L40.9544 10.302C41.0217 9.89863 41.2066 9.56248 41.5091 9.29357C41.8116 9.02465 42.173 8.89019 42.5932 8.89019H44.4588C44.879 8.89019 45.2403 9.02465 45.5429 9.29357C45.8622 9.56248 46.0555 9.89863 46.1227 10.302L47.4841 18.6973C47.4841 18.7141 47.4925 18.7225 47.5093 18.7225C47.5262 18.7225 47.5346 18.7141 47.5346 18.6973L48.7951 10.302C48.8623 9.89863 49.0472 9.56248 49.3498 9.29357C49.6523 9.02465 50.0137 8.89019 50.4338 8.89019H51.5936C51.9633 8.89019 52.2575 9.03305 52.476 9.31878C52.7113 9.6045 52.7869 9.92384 52.7029 10.2768L50.3582 20.6134C50.2742 21.0168 50.0641 21.3529 49.7279 21.6218C49.3918 21.8739 49.0136 22 48.5934 22H46.627C46.2068 22 45.837 21.8655 45.5177 21.5966C45.2151 21.3277 45.0218 20.9916 44.9378 20.5882L43.5008 12.445C43.5008 12.4282 43.4924 12.4198 43.4756 12.4198C43.4588 12.4198 43.4503 12.4282 43.4503 12.445L42.0133 20.5882C41.9461 20.9916 41.7528 21.3277 41.4335 21.5966C41.1141 21.8655 40.7443 22 40.3242 22H38.3577C37.9375 22 37.5593 21.8739 37.2232 21.6218C36.887 21.3529 36.6769 21.0168 36.5929 20.6134ZM59.3872 16.9578C57.572 16.6216 56.2694 16.1006 55.4794 15.3947C54.7063 14.6888 54.3197 13.7559 54.3197 12.5962C54.3197 11.3525 54.7819 10.386 55.7063 9.69694C56.6475 8.99103 58.0594 8.63807 59.9418 8.63807C61.0511 8.63807 62.1856 8.73051 63.3453 8.9154C63.7487 8.98263 64.0764 9.17591 64.3286 9.49525C64.5975 9.8146 64.7319 10.1844 64.7319 10.6045V10.7306C64.7319 11.0836 64.5891 11.3693 64.3033 11.5878C64.0344 11.8063 63.7235 11.8819 63.3705 11.8147C62.278 11.5962 61.2696 11.4869 60.3452 11.4869C59.6561 11.4869 59.1687 11.571 58.8829 11.739C58.614 11.9071 58.4796 12.1592 58.4796 12.4954C58.4796 13.1341 58.9838 13.5543 59.9922 13.7559C61.9083 14.0753 63.2445 14.5795 64.0008 15.2686C64.774 15.9577 65.1605 16.9578 65.1605 18.2687C65.1605 19.5293 64.6899 20.5125 63.7487 21.2185C62.8075 21.9076 61.4377 22.2521 59.6393 22.2521C58.3283 22.2521 57.0845 22.1261 55.908 21.8739C55.5046 21.7899 55.1685 21.5798 54.8996 21.2437C54.6475 20.8907 54.5214 20.4957 54.5214 20.0587V19.857C54.5214 19.5041 54.6643 19.2352 54.95 19.0503C55.2357 18.8486 55.5551 18.7898 55.908 18.8738C57.0005 19.1595 58.0762 19.3024 59.135 19.3024C60.3788 19.3024 61.0007 18.941 61.0007 18.2183C61.0007 17.8822 60.883 17.6217 60.6477 17.4368C60.4292 17.2519 60.009 17.0922 59.3872 16.9578Z" fill="white"/>
<path d="M3.52824 21.5714L-0.00728933 25.1069L-0.00728855 25.1069L3.52824 21.5714ZM3.52824 4.02443L-0.00728429 0.488889L-0.00729127 0.488896L3.52824 4.02443ZM7.86457 4.8564L3.42848 7.16316L3.4366 7.17876L3.44482 7.1943L7.86457 4.8564ZM13.1589 14.8652H18.1589V13.6243L17.5787 12.5273L13.1589 14.8652ZM13.6379 4.02443L10.1024 0.488887L10.1024 0.488897L13.6379 4.02443ZM16.8902 4.02443L20.4257 0.488893L20.4257 0.488887L16.8902 4.02443ZM16.8902 21.5714L13.3546 18.0359L16.8902 21.5714ZM12.5538 20.7394L16.9899 18.4327L16.9818 18.4171L16.9736 18.4015L12.5538 20.7394ZM7.2595 10.7306H2.2595V11.9716L2.83975 13.0685L7.2595 10.7306ZM6.78049 21.5714L10.316 25.1069L10.316 25.1069L6.78049 21.5714ZM4.53669 17C4.97559 17 5.46427 17.0846 5.95036 17.2912C6.43208 17.4959 6.8015 17.7736 7.06378 18.0359L-0.00728855 25.1069C1.1688 26.283 2.75859 27 4.53669 27V17ZM7.06378 18.0359C7.32606 18.2982 7.60373 18.6676 7.80846 19.1493C8.01505 19.6354 8.09965 20.1241 8.09965 20.563H-1.90035C-1.90035 22.3411 -1.18338 23.9308 -0.00728933 25.1069L7.06378 18.0359ZM8.09965 20.563V5.03288H-1.90035V20.563H8.09965ZM8.09965 5.03288C8.09965 5.47178 8.01505 5.96045 7.80846 6.44654C7.60373 6.92826 7.32606 7.29768 7.06378 7.55996L-0.00729127 0.488896C-1.18338 1.66499 -1.90035 3.25477 -1.90035 5.03288H8.09965ZM7.06377 7.55997C6.8015 7.82224 6.43207 8.09991 5.95035 8.30464C5.46426 8.51123 4.97559 8.59584 4.53669 8.59584V-1.40416C2.75859 -1.40416 1.16881 -0.687202 -0.00728429 0.488889L7.06377 7.55997ZM4.53669 8.59584H5.77204V-1.40416H4.53669V8.59584ZM5.77204 8.59584C5.50407 8.59584 4.99184 8.53016 4.43363 8.19388C3.87223 7.85569 3.56441 7.42456 3.42848 7.16316L12.3007 2.54963C11.7277 1.44786 10.8527 0.386451 9.59375 -0.371927C8.33803 -1.12839 6.99803 -1.40416 5.77204 -1.40416V8.59584ZM3.44482 7.1943L8.73916 17.2031L17.5787 12.5273L12.2843 2.51849L3.44482 7.1943ZM8.15892 14.8652C8.15892 15.6443 8.35706 17.147 9.62963 18.4196C10.9022 19.6923 12.405 19.8904 13.1841 19.8904V9.89045C13.9465 9.89045 15.4366 10.0844 16.7008 11.3487C17.965 12.6129 18.1589 14.103 18.1589 14.8652H8.15892ZM13.1841 19.8904C13.9633 19.8904 15.466 19.6923 16.7386 18.4197C18.0112 17.1471 18.2093 15.6444 18.2093 14.8652H8.20934C8.20934 14.1029 8.4033 12.6128 9.6675 11.3486C10.9317 10.0844 12.4218 9.89045 13.1841 9.89045V19.8904ZM18.2093 14.8652V5.03288H8.20934V14.8652H18.2093ZM18.2093 5.03288C18.2093 5.47178 18.1247 5.96045 17.9181 6.44654C17.7134 6.92826 17.4357 7.29768 17.1735 7.55996L10.1024 0.488897C8.9263 1.66499 8.20934 3.25477 8.20934 5.03288H18.2093ZM17.1735 7.55997C16.9112 7.82224 16.5418 8.09991 16.06 8.30464C15.5739 8.51123 15.0853 8.59584 14.6464 8.59584V-1.40416C12.8683 -1.40416 11.2785 -0.687203 10.1024 0.488887L17.1735 7.55997ZM14.6464 8.59584H15.8817V-1.40416H14.6464V8.59584ZM15.8817 8.59584C15.4428 8.59584 14.9542 8.51123 14.4681 8.30464C13.9863 8.09991 13.6169 7.82224 13.3546 7.55997L20.4257 0.488887C19.2496 -0.687203 17.6598 -1.40416 15.8817 -1.40416V8.59584ZM13.3546 7.55996C13.0924 7.29769 12.8147 6.92826 12.61 6.44654C12.4034 5.96045 12.3188 5.47178 12.3188 5.03288H22.3188C22.3188 3.25477 21.6018 1.66499 20.4257 0.488893L13.3546 7.55996ZM12.3188 5.03288V20.563H22.3188V5.03288H12.3188ZM12.3188 20.563C12.3188 20.1241 12.4034 19.6354 12.61 19.1493C12.8147 18.6676 13.0924 18.2981 13.3546 18.0359L20.4257 25.1069C21.6018 23.9309 22.3188 22.3411 22.3188 20.563H12.3188ZM13.3546 18.0359C13.6169 17.7736 13.9863 17.4959 14.4681 17.2912C14.9542 17.0846 15.4428 17 15.8817 17V27C17.6598 27 19.2496 26.283 20.4257 25.1069L13.3546 18.0359ZM15.8817 17H14.6464V27H15.8817V17ZM14.6464 17C14.9143 17 15.4266 17.0657 15.9848 17.402C16.5462 17.7401 16.854 18.1713 16.9899 18.4327L8.11776 23.0462C8.69069 24.148 9.56576 25.2094 10.8247 25.9678C12.0804 26.7242 13.4204 27 14.6464 27V17ZM16.9736 18.4015L11.6793 8.3927L2.83975 13.0685L8.1341 23.0773L16.9736 18.4015ZM12.2595 10.7306C12.2595 9.95146 12.0613 8.44873 10.7887 7.17613C9.5161 5.90355 8.0134 5.70539 7.23429 5.70539V15.7054C6.47199 15.7054 4.98189 15.5114 3.71769 14.2473C2.45348 12.9831 2.2595 11.4929 2.2595 10.7306H12.2595ZM7.23429 5.70539C6.45518 5.70539 4.95248 5.90355 3.67987 7.17613C2.40726 8.44873 2.20908 9.95146 2.20908 10.7306H12.2091C12.2091 11.4929 12.0151 12.9831 10.7509 14.2473C9.48669 15.5114 7.99659 15.7054 7.23429 15.7054V5.70539ZM2.20908 10.7306V20.563H12.2091V10.7306H2.20908ZM2.20908 20.563C2.20908 20.1241 2.29369 19.6354 2.50027 19.1493C2.70501 18.6676 2.98268 18.2982 3.24495 18.0359L10.316 25.1069C11.4921 23.9308 12.2091 22.3411 12.2091 20.563H2.20908ZM3.24495 18.0359C3.50723 17.7736 3.87666 17.4959 4.35838 17.2912C4.84447 17.0846 5.33314 17 5.77204 17V27C7.55014 27 9.13993 26.283 10.316 25.1069L3.24495 18.0359ZM5.77204 17H4.53669V27H5.77204V17ZM24.8019 11.9912L28.3375 15.5267L28.3751 15.4891L28.4119 15.4507L24.8019 11.9912ZM24.0708 14.0081L19.0983 13.4846L19.0708 13.7456V14.0081H24.0708ZM28.7349 13.9828H33.7349V13.8858L33.7311 13.7888L28.7349 13.9828ZM21.8522 20.5125L18.4177 24.1462L18.43 24.1579L18.4424 24.1695L21.8522 20.5125ZM21.6506 10.4029L18.0126 6.97279L18.0111 6.97439L21.6506 10.4029ZM32.5418 15.193H37.5418V15.1545L37.5412 15.1161L32.5418 15.193ZM32.0628 16.2266L35.3846 19.9637L35.3907 19.9583L35.3967 19.9528L32.0628 16.2266ZM24.0708 16.8569L29.0188 16.1372L28.992 15.9535L28.9518 15.7723L24.0708 16.8569ZM25.1297 18.8486L22.2463 22.9334L22.3143 22.9814L22.3838 23.0271L25.1297 18.8486ZM30.1971 19.1007L29.039 14.2367L29.0117 14.2432L28.9845 14.25L30.1971 19.1007ZM31.13 19.3024L27.977 23.183L28.0342 23.2294L28.0927 23.2742L31.13 19.3024ZM31.1552 21.3697L27.178 18.3395L27.1665 18.3546L27.1552 18.3697L31.1552 21.3697ZM30.1719 21.9748L29.3499 17.0428L29.295 17.052L29.2403 17.0624L30.1719 21.9748ZM26.5163 6.38609C24.8957 6.38609 22.8185 6.83442 21.192 8.53164L28.4119 15.4507C27.5585 16.3411 26.6242 16.3861 26.5163 16.3861V6.38609ZM21.2664 8.45563C19.6508 10.0713 19.2372 12.1655 19.0983 13.4846L29.0434 14.5315C29.065 14.3261 29.0844 14.3389 29.0299 14.4893C28.9759 14.6384 28.7957 15.0684 28.3375 15.5267L21.2664 8.45563ZM19.0708 14.0081C19.0708 14.6942 19.2065 16.1426 20.3521 17.4519C21.6092 18.8886 23.2313 19.2097 24.2473 19.2097V9.20975C25.1456 9.20975 26.6795 9.49727 27.8778 10.8668C28.9646 12.1088 29.0708 13.4564 29.0708 14.0081H19.0708ZM24.2473 19.2097H28.508V9.20975H24.2473V19.2097ZM28.508 19.2097C29.3544 19.2097 30.9075 18.9948 32.2137 17.6885C33.5199 16.3823 33.7349 14.8292 33.7349 13.9828H23.7349C23.7349 13.2878 23.912 11.8481 25.1426 10.6175C26.3732 9.38691 27.8129 9.20975 28.508 9.20975V19.2097ZM33.7311 13.7888C33.6755 12.3572 33.3257 10.4195 31.9313 8.78741C30.3889 6.98211 28.3031 6.38609 26.5163 6.38609V16.3861C26.3651 16.3861 26.021 16.3633 25.5828 16.187C25.1183 16.0001 24.6769 15.6912 24.3283 15.2832C23.6734 14.5166 23.727 13.8773 23.7387 14.1769L33.7311 13.7888ZM27.1466 17.2521C25.6824 17.2521 25.2998 16.8908 25.2621 16.8556L18.4424 24.1695C20.8922 26.4537 24.0392 27.2521 27.1466 27.2521V17.2521ZM25.2868 16.8789C25.2756 16.8682 25.23 16.8299 25.1716 16.6691C25.104 16.4829 25.0118 16.1039 25.0118 15.4451H15.0118C15.0118 18.5861 15.9044 21.7707 18.4177 24.1462L25.2868 16.8789ZM25.0118 15.4451C25.0118 14.7456 25.1 14.3147 25.1767 14.0786C25.2137 13.9646 25.2469 13.8995 25.2645 13.8689C25.2736 13.8532 25.2802 13.8438 25.2837 13.8391C25.2871 13.8344 25.2892 13.8322 25.29 13.8313L18.0111 6.97439C15.7574 9.36675 15.0118 12.4608 15.0118 15.4451H25.0118ZM25.2885 13.8329C25.2949 13.8261 25.2985 13.8232 25.3053 13.8188C25.3129 13.8138 25.3428 13.7952 25.4086 13.771C25.5447 13.7208 25.8603 13.6381 26.4407 13.6381V3.63807C23.3992 3.63807 20.3204 4.52512 18.0126 6.97279L25.2885 13.8329ZM26.4407 13.6381C26.9978 13.6381 27.2771 13.7155 27.3697 13.749C27.4352 13.7727 27.3783 13.7609 27.3061 13.6834C27.1613 13.5278 27.5191 13.7579 27.5424 15.2699L37.5412 15.1161C37.4972 12.2581 36.8045 9.21075 34.626 6.87023C32.3732 4.44982 29.3366 3.63807 26.4407 3.63807V13.6381ZM27.5418 15.193C27.5418 14.7147 27.6412 14.1787 27.8855 13.6516C28.1263 13.1319 28.4463 12.7532 28.7288 12.5004L35.3967 19.9528C36.7016 18.7853 37.5418 17.116 37.5418 15.193H27.5418ZM28.7409 12.4896C29.01 12.2504 29.3618 12.0203 29.7912 11.8567C30.2208 11.693 30.639 11.63 31.0039 11.63V21.63C32.6365 21.63 34.1703 21.043 35.3846 19.9637L28.7409 12.4896ZM31.0039 11.63H24.2725V21.63H31.0039V11.63ZM24.2725 11.63C23.6707 11.63 21.813 11.7292 20.359 13.3649C18.7835 15.1374 19.0163 17.1602 19.1899 17.9416L28.9518 15.7723C29.0918 16.4024 29.3414 18.3117 27.8331 20.0086C26.4463 21.5687 24.7063 21.63 24.2725 21.63V11.63ZM19.1229 17.5766C19.3858 19.3843 20.2152 21.4997 22.2463 22.9334L28.0131 14.7638C28.4141 15.0468 28.6884 15.3948 28.8512 15.701C29.0012 15.983 29.0225 16.1629 29.0188 16.1372L19.1229 17.5766ZM22.3838 23.0271C24.1601 24.1944 26.1859 24.4285 27.7517 24.4285V14.4285C27.599 14.4285 27.4861 14.422 27.4085 14.4146C27.3304 14.4072 27.2989 14.3999 27.3061 14.4015C27.313 14.403 27.3714 14.4163 27.4676 14.4544C27.5646 14.4929 27.7076 14.5597 27.8756 14.6701L22.3838 23.0271ZM27.7517 24.4285C28.9858 24.4285 30.2122 24.2508 31.4098 23.9514L28.9845 14.25C28.4341 14.3876 28.0302 14.4285 27.7517 14.4285V24.4285ZM31.3552 23.9647C30.9069 24.0715 30.31 24.1204 29.6384 23.9752C28.9588 23.8282 28.397 23.5243 27.977 23.183L34.2829 15.4218C32.7432 14.1708 30.8208 13.8125 29.039 14.2367L31.3552 23.9647ZM28.0927 23.2742C27.7081 22.9801 27.2886 22.5353 26.9793 21.9166C26.6684 21.295 26.5585 20.6768 26.5585 20.1596H36.5585C36.5585 18.2147 35.6623 16.4739 34.1672 15.3306L28.0927 23.2742ZM26.5585 20.1596V20.21H36.5585V20.1596H26.5585ZM26.5585 20.21C26.5585 19.876 26.6138 19.5214 26.7352 19.1725C26.8556 18.8265 27.0192 18.548 27.178 18.3395L35.1323 24.3999C36.025 23.2283 36.5585 21.7888 36.5585 20.21H26.5585ZM27.1552 18.3697C27.3711 18.0818 27.6817 17.7721 28.0998 17.5148C28.5201 17.2561 28.9547 17.1087 29.3499 17.0428L30.9939 26.9068C32.7039 26.6218 34.1551 25.7031 35.1552 24.3697L27.1552 18.3697ZM29.2403 17.0624C28.5875 17.1861 27.8917 17.2521 27.1466 17.2521V27.2521C28.4856 27.2521 29.8067 27.1332 31.1036 26.8872L29.2403 17.0624ZM36.5929 20.6134L41.4878 19.5936L41.4788 19.5504L41.469 19.5073L36.5929 20.6134ZM34.2483 10.2768L29.3366 11.2124L29.3529 11.2979L29.3721 11.3828L34.2483 10.2768ZM34.4752 9.31878L38.447 12.356L38.447 12.356L34.4752 9.31878ZM37.7022 9.29357L34.3804 13.0306L34.3804 13.0306L37.7022 9.29357ZM38.2568 10.302L43.2014 9.55958L43.1954 9.51975L43.1888 9.48002L38.2568 10.302ZM39.5174 18.6973H44.5174V18.3241L44.462 17.9549L39.5174 18.6973ZM39.5678 18.6973L34.6347 17.8825L34.5678 18.2872V18.6973H39.5678ZM40.9544 10.302L36.0225 9.48002L36.0213 9.48722L40.9544 10.302ZM41.5091 9.29357L44.8309 13.0306L44.8309 13.0306L41.5091 9.29357ZM45.5429 9.29357L42.2211 13.0306L42.271 13.075L42.3222 13.1181L45.5429 9.29357ZM46.1227 10.302L51.0583 9.50166L51.0565 9.49083L51.0547 9.48002L46.1227 10.302ZM47.4841 18.6973H52.4841V18.2946L52.4197 17.897L47.4841 18.6973ZM47.5346 18.6973L42.59 17.9549L42.5346 18.3241V18.6973H47.5346ZM48.7951 10.302L43.8631 9.48002L43.8565 9.51975L43.8505 9.55958L48.7951 10.302ZM49.3498 9.29357L52.6716 13.0306L52.6716 13.0306L49.3498 9.29357ZM52.476 9.31878L48.5042 12.356L48.559 12.4277L48.6163 12.4973L52.476 9.31878ZM52.7029 10.2768L47.8388 9.1187L47.8326 9.14469L47.8267 9.17075L52.7029 10.2768ZM50.3582 20.6134L45.4821 19.5073L45.4723 19.5504L45.4633 19.5936L50.3582 20.6134ZM49.7279 21.6218L52.7279 25.6218L52.7904 25.575L52.8514 25.5262L49.7279 21.6218ZM45.5177 21.5966L42.1958 25.3337L42.2458 25.3781L42.297 25.4212L45.5177 21.5966ZM44.9378 20.5882L40.0139 21.4571L40.0272 21.5327L40.0429 21.6079L44.9378 20.5882ZM43.5008 12.445H38.5008V12.8828L38.5769 13.3139L43.5008 12.445ZM43.4503 12.445L48.3743 13.3139L48.4503 12.8828V12.445H43.4503ZM42.0133 20.5882L37.0894 19.7192L37.0853 19.7427L37.0813 19.7662L42.0133 20.5882ZM41.4335 21.5966L38.2128 17.7721L38.2128 17.7721L41.4335 21.5966ZM37.2232 21.6218L34.0997 25.5262L34.1607 25.575L34.2232 25.6218L37.2232 21.6218ZM41.469 19.5073L39.1244 9.17075L29.3721 11.3828L31.7168 21.7194L41.469 19.5073ZM39.16 9.34124C39.2454 9.79002 39.2592 10.337 39.12 10.9249C38.9808 11.5127 38.7234 11.9945 38.447 12.356L30.5034 6.28152C29.4217 7.69605 29.0028 9.45997 29.3366 11.2124L39.16 9.34124ZM38.447 12.356C38.1306 12.7697 37.6665 13.1926 37.0442 13.4949C36.4263 13.795 35.8299 13.8902 35.3576 13.8902V3.89019C33.4815 3.89019 31.6985 4.71869 30.5034 6.28153L38.447 12.356ZM35.3576 13.8902H36.6181V3.89019H35.3576V13.8902ZM36.6181 13.8902C36.2865 13.8902 35.8859 13.8354 35.4606 13.6771C35.0324 13.5178 34.6685 13.2867 34.3804 13.0306L41.024 5.55652C39.7687 4.4407 38.2118 3.89019 36.6181 3.89019V13.8902ZM34.3804 13.0306C34.1291 12.8073 33.8839 12.5156 33.6867 12.157C33.4898 11.799 33.3779 11.4419 33.3249 11.124L43.1888 9.48002C42.9358 7.96216 42.1901 6.59306 41.024 5.55652L34.3804 13.0306ZM33.3123 11.0444L34.5728 19.4398L44.462 17.9549L43.2014 9.55958L33.3123 11.0444ZM34.5174 18.6973C34.5174 19.4765 34.7156 20.9792 35.9882 22.2518C37.2608 23.5244 38.7635 23.7225 39.5426 23.7225V13.7225C40.3049 13.7225 41.795 13.9165 43.0592 15.1807C44.3234 16.4449 44.5174 17.935 44.5174 18.6973H34.5174ZM39.5426 23.7225C40.3218 23.7225 41.8245 23.5244 43.0971 22.2518C44.3697 20.9791 44.5678 19.4764 44.5678 18.6973H34.5678C34.5678 17.935 34.7618 16.4449 36.026 15.1807C37.2902 13.9165 38.7803 13.7225 39.5426 13.7225V23.7225ZM44.501 19.5121L45.8876 11.1168L36.0213 9.48722L34.6347 17.8825L44.501 19.5121ZM45.8864 11.124C45.8334 11.4419 45.7215 11.799 45.5246 12.157C45.3274 12.5156 45.0822 12.8073 44.8309 13.0306L38.1873 5.55652C37.0212 6.59306 36.2754 7.96215 36.0225 9.48002L45.8864 11.124ZM44.8309 13.0306C44.5428 13.2867 44.1789 13.5178 43.7507 13.6771C43.3254 13.8354 42.9248 13.8902 42.5932 13.8902V3.89019C40.9995 3.89019 39.4426 4.4407 38.1873 5.55652L44.8309 13.0306ZM42.5932 13.8902H44.4588V3.89019H42.5932V13.8902ZM44.4588 13.8902C44.1271 13.8902 43.7266 13.8354 43.3013 13.6771C42.8731 13.5178 42.5092 13.2867 42.2211 13.0306L48.8647 5.55652C47.6094 4.4407 46.0524 3.89019 44.4588 3.89019V13.8902ZM42.3222 13.1181C42.0701 12.9058 41.8085 12.6148 41.5928 12.2397C41.3764 11.8633 41.2497 11.4778 41.1908 11.124L51.0547 9.48002C50.7876 7.87764 49.9713 6.48604 48.7636 5.46901L42.3222 13.1181ZM41.1872 11.1024L42.5486 19.4977L52.4197 17.897L51.0583 9.50166L41.1872 11.1024ZM42.4841 18.6973C42.4841 19.4764 42.6823 20.9791 43.9549 22.2518C45.2275 23.5244 46.7302 23.7225 47.5093 23.7225V13.7225C48.2717 13.7225 49.7618 13.9165 51.026 15.1807C52.2902 16.4449 52.4841 17.935 52.4841 18.6973H42.4841ZM47.5093 23.7225C48.2885 23.7225 49.7912 23.5244 51.0638 22.2518C52.3364 20.9791 52.5346 19.4764 52.5346 18.6973H42.5346C42.5346 17.935 42.7285 16.4449 43.9927 15.1807C45.2569 13.9165 46.747 13.7225 47.5093 13.7225V23.7225ZM52.4791 19.4398L53.7397 11.0444L43.8505 9.55958L42.59 17.9549L52.4791 19.4398ZM53.7271 11.124C53.6741 11.4419 53.5622 11.799 53.3653 12.157C53.1681 12.5156 52.9228 12.8073 52.6716 13.0306L46.0279 5.55652C44.8618 6.59306 44.1161 7.96215 43.8631 9.48002L53.7271 11.124ZM52.6716 13.0306C52.3835 13.2867 52.0195 13.5178 51.5914 13.6771C51.1661 13.8354 50.7655 13.8902 50.4338 13.8902V3.89019C48.8402 3.89019 47.2832 4.44071 46.0279 5.55652L52.6716 13.0306ZM50.4338 13.8902H51.5936V3.89019H50.4338V13.8902ZM51.5936 13.8902C51.1212 13.8902 50.5249 13.795 49.907 13.4949C49.2846 13.1926 48.8205 12.7697 48.5042 12.356L56.4477 6.28153C55.2526 4.71869 53.4696 3.89019 51.5936 3.89019V13.8902ZM48.6163 12.4973C48.3109 12.1264 48.0033 11.5988 47.8438 10.9249C47.6833 10.2475 47.7194 9.62035 47.8388 9.1187L57.5669 11.4349C58.0221 9.52309 57.5426 7.60585 56.3356 6.14024L48.6163 12.4973ZM47.8267 9.17075L45.4821 19.5073L55.2343 21.7194L57.579 11.3829L47.8267 9.17075ZM45.4633 19.5936C45.5369 19.2406 45.6776 18.8701 45.8976 18.518C46.116 18.1686 46.3701 17.9049 46.6045 17.7175L52.8514 25.5262C54.0514 24.5662 54.9207 23.2288 55.2531 21.6332L45.4633 19.5936ZM46.7279 17.6218C46.9664 17.443 47.2633 17.278 47.6111 17.162C47.9588 17.0461 48.2954 17 48.5934 17V27C50.0955 27 51.5263 26.5231 52.7279 25.6218L46.7279 17.6218ZM48.5934 17H46.627V27H48.5934V17ZM46.627 17C46.9598 17 47.3442 17.0551 47.7432 17.2002C48.1427 17.3454 48.4769 17.5519 48.7383 17.7721L42.297 25.4212C43.5242 26.4546 45.0366 27 46.627 27V17ZM48.8395 17.8596C49.0728 18.067 49.297 18.3316 49.4803 18.6505C49.6632 18.9685 49.7737 19.2852 49.8327 19.5684L40.0429 21.6079C40.3417 23.0422 41.0754 24.3377 42.1958 25.3337L48.8395 17.8596ZM49.8617 19.7192L48.4247 11.576L38.5769 13.3139L40.0139 21.4571L49.8617 19.7192ZM48.5008 12.445C48.5008 11.6658 48.3026 10.1631 47.03 8.89052C45.7574 7.61792 44.2547 7.41975 43.4756 7.41975V17.4198C42.7132 17.4198 41.2231 17.2258 39.9589 15.9616C38.6947 14.6974 38.5008 13.2073 38.5008 12.445H48.5008ZM43.4756 7.41975C42.6964 7.41975 41.1937 7.61794 39.9211 8.89057C38.6485 10.1632 38.4503 11.6659 38.4503 12.445H48.4503C48.4503 13.2072 48.2564 14.6973 46.9922 15.9615C45.728 17.2258 44.2379 17.4198 43.4756 17.4198V7.41975ZM38.5264 11.576L37.0894 19.7192L46.9372 21.4571L48.3743 13.3139L38.5264 11.576ZM37.0813 19.7662C37.1403 19.4124 37.2669 19.0269 37.4834 18.6505C37.6991 18.2754 37.9606 17.9844 38.2128 17.7721L44.6541 25.4212C45.8619 24.4041 46.6782 23.0125 46.9453 21.4102L37.0813 19.7662ZM38.2128 17.7721C38.4743 17.5519 38.8084 17.3454 39.2079 17.2002C39.6069 17.0551 39.9913 17 40.3242 17V27C41.9145 27 43.4269 26.4546 44.6541 25.4212L38.2128 17.7721ZM40.3242 17H38.3577V27H40.3242V17ZM38.3577 17C38.6558 17 38.9923 17.0461 39.3401 17.162C39.6878 17.278 39.9847 17.443 40.2232 17.6218L34.2232 25.6218C35.4248 26.5231 36.8557 27 38.3577 27V17ZM40.3467 17.7175C40.581 17.9049 40.8351 18.1686 41.0535 18.518C41.2735 18.8701 41.4143 19.2406 41.4878 19.5936L31.698 21.6332C32.0304 23.2288 32.8997 24.5662 34.0997 25.5262L40.3467 17.7175ZM59.3872 16.9578L60.4438 12.0707L60.3709 12.0549L60.2976 12.0414L59.3872 16.9578ZM55.4794 15.3947L52.1081 19.0871L52.1278 19.1051L52.1478 19.123L55.4794 15.3947ZM55.7063 9.69694L58.6947 13.7057L58.7005 13.7013L58.7063 13.6969L55.7063 9.69694ZM63.3453 8.9154L64.1673 3.98343L64.1499 3.98053L64.1325 3.97775L63.3453 8.9154ZM64.3286 9.49525L60.4041 12.5935L60.4531 12.6555L60.504 12.7159L64.3286 9.49525ZM64.3033 11.5878L61.2661 7.616L61.2076 7.66075L61.1504 7.70721L64.3033 11.5878ZM63.3705 11.8147L62.3899 16.7176L62.4124 16.7221L62.435 16.7264L63.3705 11.8147ZM58.8829 11.739L56.3478 7.42938L56.2899 7.46345L56.2329 7.49906L58.8829 11.739ZM59.9922 13.7559L59.0116 18.6588L59.0907 18.6747L59.1702 18.6879L59.9922 13.7559ZM64.0008 15.2686L60.6334 18.9646L60.6536 18.983L60.674 19.0012L64.0008 15.2686ZM63.7487 21.2185L66.7024 25.2528L66.7256 25.2357L66.7487 25.2185L63.7487 21.2185ZM55.908 21.8739L56.9557 16.9849L56.9417 16.9819L56.9278 16.979L55.908 21.8739ZM54.8996 21.2437L50.8309 24.1499L50.9101 24.2607L50.9952 24.3671L54.8996 21.2437ZM54.95 19.0503L57.6662 23.2481L57.751 23.1933L57.8334 23.1351L54.95 19.0503ZM55.908 18.8738L57.1732 14.0365L57.1198 14.0226L57.0661 14.0098L55.908 18.8738ZM60.6477 17.4368L57.418 21.2537L57.4873 21.3123L57.5586 21.3684L60.6477 17.4368ZM60.2976 12.0414C59.6187 11.9156 59.1731 11.7794 58.9058 11.6725C58.6304 11.5623 58.6561 11.5279 58.8111 11.6664L52.1478 19.123C53.9583 20.7409 56.3452 21.4794 58.4767 21.8742L60.2976 12.0414ZM58.8508 11.7022C58.9849 11.8247 59.131 12.0156 59.2287 12.2514C59.3215 12.4753 59.3197 12.6159 59.3197 12.5962H49.3197C49.3197 14.9925 50.1792 17.326 52.1081 19.0871L58.8508 11.7022ZM59.3197 12.5962C59.3197 12.5948 59.3198 12.6465 59.3005 12.7389C59.2807 12.8335 59.2433 12.9574 59.177 13.0959C59.0319 13.3993 58.8316 13.6035 58.6947 13.7057L52.718 5.68821C50.4162 7.40408 49.3197 9.91795 49.3197 12.5962H59.3197ZM58.7063 13.6969C58.5336 13.8265 58.4758 13.8055 58.6838 13.7535C58.897 13.7002 59.2968 13.6381 59.9418 13.6381V3.63807C57.5786 3.63807 54.8945 4.0558 52.7063 5.69694L58.7063 13.6969ZM59.9418 13.6381C60.7726 13.6381 61.6437 13.7073 62.5582 13.853L64.1325 3.97775C62.7275 3.75377 61.3296 3.63807 59.9418 3.63807V13.6381ZM62.5233 13.8474C62.1644 13.7876 61.7577 13.6558 61.3537 13.4176C60.9494 13.1792 60.6342 12.8849 60.4041 12.5935L68.253 6.39704C67.2263 5.09654 65.7899 4.25385 64.1673 3.98343L62.5233 13.8474ZM60.504 12.7159C60.2838 12.4545 60.0774 12.1203 59.9321 11.7208C59.787 11.3218 59.7319 10.9374 59.7319 10.6045H69.7319C69.7319 9.01418 69.1865 7.50177 68.1531 6.27457L60.504 12.7159ZM59.7319 10.6045V10.7306H69.7319V10.6045H59.7319ZM59.7319 10.7306C59.7319 10.2134 59.8418 9.59523 60.1526 8.97355C60.462 8.35492 60.8815 7.91007 61.2661 7.616L67.3406 15.5596C68.8357 14.4163 69.7319 12.6755 69.7319 10.7306H59.7319ZM61.1504 7.70721C61.5437 7.38761 62.0623 7.10192 62.6867 6.95004C63.3058 6.79945 63.8675 6.81945 64.3061 6.90299L62.435 16.7264C64.1746 17.0577 65.9955 16.6553 67.4563 15.4684L61.1504 7.70721ZM64.3511 6.91178C62.9991 6.64138 61.6577 6.48694 60.3452 6.48694V16.4869C60.8815 16.4869 61.557 16.551 62.3899 16.7176L64.3511 6.91178ZM60.3452 6.48694C59.5356 6.48694 57.8687 6.53473 56.3478 7.42938L61.418 16.0487C61.1175 16.2255 60.8578 16.3261 60.6852 16.3824C60.5101 16.4395 60.3791 16.4658 60.3123 16.4773C60.1904 16.4983 60.1836 16.4869 60.3452 16.4869V6.48694ZM56.2329 7.49906C54.3993 8.64508 53.4796 10.5601 53.4796 12.4954H63.4796C63.4796 13.0031 63.374 13.6911 62.9922 14.4071C62.6034 15.136 62.0572 15.6513 61.5329 15.979L56.2329 7.49906ZM53.4796 12.4954C53.4796 14.3453 54.3011 16.0009 55.6568 17.1306C56.8122 18.0935 58.1097 18.4785 59.0116 18.6588L60.9728 8.85304C60.8663 8.83174 61.4075 8.90578 62.0586 9.44843C62.4209 9.75029 62.8057 10.1902 63.0884 10.7838C63.3729 11.3811 63.4796 11.9786 63.4796 12.4954H53.4796ZM59.1702 18.6879C59.9128 18.8117 60.3901 18.9475 60.6661 19.0516C60.9601 19.1626 60.8678 19.1782 60.6334 18.9646L67.3683 11.5726C65.5046 9.87464 62.9591 9.18145 60.8142 8.82397L59.1702 18.6879ZM60.674 19.0012C60.4469 18.7988 60.2893 18.5515 60.2069 18.3382C60.1345 18.1509 60.1605 18.0967 60.1605 18.2687H70.1605C70.1605 15.9381 69.4348 13.4142 67.3277 11.536L60.674 19.0012ZM60.1605 18.2687C60.1605 18.2728 60.1602 18.2244 60.1788 18.1358C60.1978 18.045 60.2339 17.926 60.2975 17.7929C60.4371 17.5013 60.6274 17.3095 60.7487 17.2185L66.7487 25.2185C69.05 23.4925 70.1605 20.9724 70.1605 18.2687H60.1605ZM60.795 17.1841C60.9416 17.0768 60.984 17.0974 60.7957 17.1447C60.6008 17.1938 60.2332 17.2521 59.6393 17.2521V27.2521C61.9604 27.2521 64.5527 26.8267 66.7024 25.2528L60.795 17.1841ZM59.6393 17.2521C58.6494 17.2521 57.7587 17.157 56.9557 16.9849L54.8604 26.763C56.4104 27.0951 58.0072 27.2521 59.6393 27.2521V17.2521ZM56.9278 16.979C57.2808 17.0526 57.6513 17.1933 58.0034 17.4134C58.3528 17.6317 58.6165 17.8859 58.8039 18.1202L50.9952 24.3671C51.9552 25.5671 53.2926 26.4364 54.8882 26.7688L56.9278 16.979ZM58.9682 18.3375C59.1303 18.5644 59.277 18.8422 59.3792 19.1625C59.4814 19.4825 59.5214 19.7893 59.5214 20.0587H49.5214C49.5214 21.5295 49.9682 22.9421 50.8309 24.1499L58.9682 18.3375ZM59.5214 20.0587V19.857H49.5214V20.0587H59.5214ZM59.5214 19.857C59.5214 20.3678 59.4134 21.0413 59.0441 21.7364C58.6708 22.4392 58.1526 22.9335 57.6662 23.2481L52.2337 14.8524C50.4615 15.9992 49.5214 17.8839 49.5214 19.857H59.5214ZM57.8334 23.1351C57.4314 23.4189 56.9153 23.6606 56.3096 23.7722C55.7089 23.8828 55.1705 23.838 54.7499 23.7378L57.0661 14.0098C55.3761 13.6074 53.5742 13.9012 52.0666 14.9655L57.8334 23.1351ZM54.6429 23.7111C56.1211 24.0977 57.6219 24.3024 59.135 24.3024V14.3024C58.5305 14.3024 57.8799 14.2214 57.1732 14.0365L54.6429 23.7111ZM59.135 24.3024C60.0774 24.3024 61.601 24.1944 63.0464 23.3545C64.9067 22.2735 66.0007 20.3503 66.0007 18.2183H56.0007C56.0007 17.6643 56.1264 16.9379 56.547 16.2047C56.9683 15.4703 57.535 14.9914 58.0222 14.7083C58.8457 14.2297 59.4365 14.3024 59.135 14.3024V24.3024ZM66.0007 18.2183C66.0007 16.5631 65.3383 14.7635 63.7368 13.5052L57.5586 21.3684C57.074 20.9876 56.6437 20.4668 56.3556 19.8288C56.0754 19.2084 56.0007 18.6364 56.0007 18.2183H66.0007ZM63.8774 13.6198C62.6322 12.5662 61.1135 12.2155 60.4438 12.0707L58.3305 21.8448C58.4885 21.879 58.4906 21.8895 58.3926 21.8523C58.3388 21.8318 58.2244 21.7855 58.0721 21.7033C57.924 21.6235 57.6869 21.4812 57.418 21.2537L63.8774 13.6198Z" fill="#FFA800"/>
</g>
<defs>
<filter id="filter0_d_1544_381" x="0.429961" y="0.256323" width="67.4018" height="23.9995" filterUnits="userSpaceOnUse" color-interpolation-filters="sRGB">
<feFlood flood-opacity="0" result="BackgroundImageFix"/>
<feColorMatrix in="SourceAlpha" type="matrix" values="0 0 0 0 0 0 0 0 0 0 0 0 0 0 0 0 0 0 127 0" result="hardAlpha"/>
<feOffset dy="-0.6679"/>
<feGaussianBlur stdDeviation="1.3358"/>
<feComposite in2="hardAlpha" operator="out"/>
<feColorMatrix type="matrix" values="0 0 0 0 0 0 0 0 0 0 0 0 0 0 0 0 0 0 0.25 0"/>
<feBlend mode="normal" in2="BackgroundImageFix" result="effect1_dropShadow_1544_381"/>
<feBlend mode="normal" in="SourceGraphic" in2="effect1_dropShadow_1544_381" result="shape"/>
</filter>
</defs>
</svg>
